<?xml version="1.0" encoding="utf-8" standalone="no"?>
<!DOCTYPE svg PUBLIC "-//W3C//DTD SVG 1.1//EN"
  "http://www.w3.org/Graphics/SVG/1.1/DTD/svg11.dtd">
<svg xmlns:xlink="http://www.w3.org/1999/xlink" width="460.8pt" height="345.6pt" viewBox="0 0 460.8 345.6" xmlns="http://www.w3.org/2000/svg" version="1.1">
 <metadata>
  <rdf:RDF xmlns:dc="http://purl.org/dc/elements/1.1/" xmlns:cc="http://creativecommons.org/ns#" xmlns:rdf="http://www.w3.org/1999/02/22-rdf-syntax-ns#">
   <cc:Work>
    <dc:type rdf:resource="http://purl.org/dc/dcmitype/StillImage"/>
    <dc:date>2022-05-20T13:08:23.039774</dc:date>
    <dc:format>image/svg+xml</dc:format>
    <dc:creator>
     <cc:Agent>
      <dc:title>Matplotlib v3.5.1, https://matplotlib.org/</dc:title>
     </cc:Agent>
    </dc:creator>
   </cc:Work>
  </rdf:RDF>
 </metadata>
 <defs>
  <style type="text/css">*{stroke-linejoin: round; stroke-linecap: butt}</style>
 </defs>
 <g id="figure_1">
  <g id="patch_1">
   <path d="M 0 345.6 
L 460.8 345.6 
L 460.8 0 
L 0 0 
z
" style="fill: #ffffff"/>
  </g>
  <g id="axes_1">
   <g id="patch_2">
    <path d="M 57.6 307.584 
L 414.72 307.584 
L 414.72 41.472 
L 57.6 41.472 
z
" style="fill: #ffffff"/>
   </g>
   <g id="matplotlib.axis_1">
    <g id="xtick_1">
     <g id="line2d_1">
      <defs>
       <path id="m64726b8db5" d="M 0 0 
L 0 3.5 
" style="stroke: #000000; stroke-width: 0.8"/>
      </defs>
      <g>
       <use xlink:href="#m64726b8db5" x="57.6" y="307.584" style="stroke: #000000; stroke-width: 0.8"/>
      </g>
     </g>
     <g id="text_1">
      <!-- 2020 -->
      <g transform="translate(44.875 322.182437)scale(0.1 -0.1)">
       <defs>
        <path id="DejaVuSans-32" d="M 1228 531 
L 3431 531 
L 3431 0 
L 469 0 
L 469 531 
Q 828 903 1448 1529 
Q 2069 2156 2228 2338 
Q 2531 2678 2651 2914 
Q 2772 3150 2772 3378 
Q 2772 3750 2511 3984 
Q 2250 4219 1831 4219 
Q 1534 4219 1204 4116 
Q 875 4013 500 3803 
L 500 4441 
Q 881 4594 1212 4672 
Q 1544 4750 1819 4750 
Q 2544 4750 2975 4387 
Q 3406 4025 3406 3419 
Q 3406 3131 3298 2873 
Q 3191 2616 2906 2266 
Q 2828 2175 2409 1742 
Q 1991 1309 1228 531 
z
" transform="scale(0.015625)"/>
        <path id="DejaVuSans-30" d="M 2034 4250 
Q 1547 4250 1301 3770 
Q 1056 3291 1056 2328 
Q 1056 1369 1301 889 
Q 1547 409 2034 409 
Q 2525 409 2770 889 
Q 3016 1369 3016 2328 
Q 3016 3291 2770 3770 
Q 2525 4250 2034 4250 
z
M 2034 4750 
Q 2819 4750 3233 4129 
Q 3647 3509 3647 2328 
Q 3647 1150 3233 529 
Q 2819 -91 2034 -91 
Q 1250 -91 836 529 
Q 422 1150 422 2328 
Q 422 3509 836 4129 
Q 1250 4750 2034 4750 
z
" transform="scale(0.015625)"/>
       </defs>
       <use xlink:href="#DejaVuSans-32"/>
       <use xlink:href="#DejaVuSans-30" x="63.623047"/>
       <use xlink:href="#DejaVuSans-32" x="127.246094"/>
       <use xlink:href="#DejaVuSans-30" x="190.869141"/>
      </g>
     </g>
    </g>
    <g id="xtick_2">
     <g id="line2d_2">
      <g>
       <use xlink:href="#m64726b8db5" x="129.258947" y="307.584" style="stroke: #000000; stroke-width: 0.8"/>
      </g>
     </g>
     <g id="text_2">
      <!-- 2021 -->
      <g transform="translate(116.533947 322.182437)scale(0.1 -0.1)">
       <defs>
        <path id="DejaVuSans-31" d="M 794 531 
L 1825 531 
L 1825 4091 
L 703 3866 
L 703 4441 
L 1819 4666 
L 2450 4666 
L 2450 531 
L 3481 531 
L 3481 0 
L 794 0 
L 794 531 
z
" transform="scale(0.015625)"/>
       </defs>
       <use xlink:href="#DejaVuSans-32"/>
       <use xlink:href="#DejaVuSans-30" x="63.623047"/>
       <use xlink:href="#DejaVuSans-32" x="127.246094"/>
       <use xlink:href="#DejaVuSans-31" x="190.869141"/>
      </g>
     </g>
    </g>
    <g id="xtick_3">
     <g id="line2d_3">
      <g>
       <use xlink:href="#m64726b8db5" x="200.722105" y="307.584" style="stroke: #000000; stroke-width: 0.8"/>
      </g>
     </g>
     <g id="text_3">
      <!-- 2022 -->
      <g transform="translate(187.997105 322.182437)scale(0.1 -0.1)">
       <use xlink:href="#DejaVuSans-32"/>
       <use xlink:href="#DejaVuSans-30" x="63.623047"/>
       <use xlink:href="#DejaVuSans-32" x="127.246094"/>
       <use xlink:href="#DejaVuSans-32" x="190.869141"/>
      </g>
     </g>
    </g>
    <g id="xtick_4">
     <g id="line2d_4">
      <g>
       <use xlink:href="#m64726b8db5" x="272.185263" y="307.584" style="stroke: #000000; stroke-width: 0.8"/>
      </g>
     </g>
     <g id="text_4">
      <!-- 2023 -->
      <g transform="translate(259.460263 322.182437)scale(0.1 -0.1)">
       <defs>
        <path id="DejaVuSans-33" d="M 2597 2516 
Q 3050 2419 3304 2112 
Q 3559 1806 3559 1356 
Q 3559 666 3084 287 
Q 2609 -91 1734 -91 
Q 1441 -91 1130 -33 
Q 819 25 488 141 
L 488 750 
Q 750 597 1062 519 
Q 1375 441 1716 441 
Q 2309 441 2620 675 
Q 2931 909 2931 1356 
Q 2931 1769 2642 2001 
Q 2353 2234 1838 2234 
L 1294 2234 
L 1294 2753 
L 1863 2753 
Q 2328 2753 2575 2939 
Q 2822 3125 2822 3475 
Q 2822 3834 2567 4026 
Q 2313 4219 1838 4219 
Q 1578 4219 1281 4162 
Q 984 4106 628 3988 
L 628 4550 
Q 988 4650 1302 4700 
Q 1616 4750 1894 4750 
Q 2613 4750 3031 4423 
Q 3450 4097 3450 3541 
Q 3450 3153 3228 2886 
Q 3006 2619 2597 2516 
z
" transform="scale(0.015625)"/>
       </defs>
       <use xlink:href="#DejaVuSans-32"/>
       <use xlink:href="#DejaVuSans-30" x="63.623047"/>
       <use xlink:href="#DejaVuSans-32" x="127.246094"/>
       <use xlink:href="#DejaVuSans-33" x="190.869141"/>
      </g>
     </g>
    </g>
    <g id="xtick_5">
     <g id="line2d_5">
      <g>
       <use xlink:href="#m64726b8db5" x="343.648421" y="307.584" style="stroke: #000000; stroke-width: 0.8"/>
      </g>
     </g>
     <g id="text_5">
      <!-- 2024 -->
      <g transform="translate(330.923421 322.182437)scale(0.1 -0.1)">
       <defs>
        <path id="DejaVuSans-34" d="M 2419 4116 
L 825 1625 
L 2419 1625 
L 2419 4116 
z
M 2253 4666 
L 3047 4666 
L 3047 1625 
L 3713 1625 
L 3713 1100 
L 3047 1100 
L 3047 0 
L 2419 0 
L 2419 1100 
L 313 1100 
L 313 1709 
L 2253 4666 
z
" transform="scale(0.015625)"/>
       </defs>
       <use xlink:href="#DejaVuSans-32"/>
       <use xlink:href="#DejaVuSans-30" x="63.623047"/>
       <use xlink:href="#DejaVuSans-32" x="127.246094"/>
       <use xlink:href="#DejaVuSans-34" x="190.869141"/>
      </g>
     </g>
    </g>
    <g id="xtick_6">
     <g id="line2d_6">
      <g>
       <use xlink:href="#m64726b8db5" x="414.72" y="307.584" style="stroke: #000000; stroke-width: 0.8"/>
      </g>
     </g>
    </g>
    <g id="xtick_7">
     <g id="line2d_7">
      <defs>
       <path id="m5578309df7" d="M 0 0 
L 0 2 
" style="stroke: #000000; stroke-width: 0.6"/>
      </defs>
      <g>
       <use xlink:href="#m5578309df7" x="75.416842" y="307.584" style="stroke: #000000; stroke-width: 0.6"/>
      </g>
     </g>
    </g>
    <g id="xtick_8">
     <g id="line2d_8">
      <g>
       <use xlink:href="#m5578309df7" x="93.233684" y="307.584" style="stroke: #000000; stroke-width: 0.6"/>
      </g>
     </g>
    </g>
    <g id="xtick_9">
     <g id="line2d_9">
      <g>
       <use xlink:href="#m5578309df7" x="111.246316" y="307.584" style="stroke: #000000; stroke-width: 0.6"/>
      </g>
     </g>
    </g>
    <g id="xtick_10">
     <g id="line2d_10">
      <g>
       <use xlink:href="#m5578309df7" x="146.88" y="307.584" style="stroke: #000000; stroke-width: 0.6"/>
      </g>
     </g>
    </g>
    <g id="xtick_11">
     <g id="line2d_11">
      <g>
       <use xlink:href="#m5578309df7" x="164.696842" y="307.584" style="stroke: #000000; stroke-width: 0.6"/>
      </g>
     </g>
    </g>
    <g id="xtick_12">
     <g id="line2d_12">
      <g>
       <use xlink:href="#m5578309df7" x="182.709474" y="307.584" style="stroke: #000000; stroke-width: 0.6"/>
      </g>
     </g>
    </g>
    <g id="xtick_13">
     <g id="line2d_13">
      <g>
       <use xlink:href="#m5578309df7" x="218.343158" y="307.584" style="stroke: #000000; stroke-width: 0.6"/>
      </g>
     </g>
    </g>
    <g id="xtick_14">
     <g id="line2d_14">
      <g>
       <use xlink:href="#m5578309df7" x="236.16" y="307.584" style="stroke: #000000; stroke-width: 0.6"/>
      </g>
     </g>
    </g>
    <g id="xtick_15">
     <g id="line2d_15">
      <g>
       <use xlink:href="#m5578309df7" x="254.172632" y="307.584" style="stroke: #000000; stroke-width: 0.6"/>
      </g>
     </g>
    </g>
    <g id="xtick_16">
     <g id="line2d_16">
      <g>
       <use xlink:href="#m5578309df7" x="289.806316" y="307.584" style="stroke: #000000; stroke-width: 0.6"/>
      </g>
     </g>
    </g>
    <g id="xtick_17">
     <g id="line2d_17">
      <g>
       <use xlink:href="#m5578309df7" x="307.623158" y="307.584" style="stroke: #000000; stroke-width: 0.6"/>
      </g>
     </g>
    </g>
    <g id="xtick_18">
     <g id="line2d_18">
      <g>
       <use xlink:href="#m5578309df7" x="325.635789" y="307.584" style="stroke: #000000; stroke-width: 0.6"/>
      </g>
     </g>
    </g>
    <g id="xtick_19">
     <g id="line2d_19">
      <g>
       <use xlink:href="#m5578309df7" x="361.465263" y="307.584" style="stroke: #000000; stroke-width: 0.6"/>
      </g>
     </g>
    </g>
    <g id="xtick_20">
     <g id="line2d_20">
      <g>
       <use xlink:href="#m5578309df7" x="379.282105" y="307.584" style="stroke: #000000; stroke-width: 0.6"/>
      </g>
     </g>
    </g>
    <g id="xtick_21">
     <g id="line2d_21">
      <g>
       <use xlink:href="#m5578309df7" x="397.294737" y="307.584" style="stroke: #000000; stroke-width: 0.6"/>
      </g>
     </g>
    </g>
    <g id="text_6">
     <!-- date -->
     <g transform="translate(224.885 335.860562)scale(0.1 -0.1)">
      <defs>
       <path id="DejaVuSans-64" d="M 2906 2969 
L 2906 4863 
L 3481 4863 
L 3481 0 
L 2906 0 
L 2906 525 
Q 2725 213 2448 61 
Q 2172 -91 1784 -91 
Q 1150 -91 751 415 
Q 353 922 353 1747 
Q 353 2572 751 3078 
Q 1150 3584 1784 3584 
Q 2172 3584 2448 3432 
Q 2725 3281 2906 2969 
z
M 947 1747 
Q 947 1113 1208 752 
Q 1469 391 1925 391 
Q 2381 391 2643 752 
Q 2906 1113 2906 1747 
Q 2906 2381 2643 2742 
Q 2381 3103 1925 3103 
Q 1469 3103 1208 2742 
Q 947 2381 947 1747 
z
" transform="scale(0.015625)"/>
       <path id="DejaVuSans-61" d="M 2194 1759 
Q 1497 1759 1228 1600 
Q 959 1441 959 1056 
Q 959 750 1161 570 
Q 1363 391 1709 391 
Q 2188 391 2477 730 
Q 2766 1069 2766 1631 
L 2766 1759 
L 2194 1759 
z
M 3341 1997 
L 3341 0 
L 2766 0 
L 2766 531 
Q 2569 213 2275 61 
Q 1981 -91 1556 -91 
Q 1019 -91 701 211 
Q 384 513 384 1019 
Q 384 1609 779 1909 
Q 1175 2209 1959 2209 
L 2766 2209 
L 2766 2266 
Q 2766 2663 2505 2880 
Q 2244 3097 1772 3097 
Q 1472 3097 1187 3025 
Q 903 2953 641 2809 
L 641 3341 
Q 956 3463 1253 3523 
Q 1550 3584 1831 3584 
Q 2591 3584 2966 3190 
Q 3341 2797 3341 1997 
z
" transform="scale(0.015625)"/>
       <path id="DejaVuSans-74" d="M 1172 4494 
L 1172 3500 
L 2356 3500 
L 2356 3053 
L 1172 3053 
L 1172 1153 
Q 1172 725 1289 603 
Q 1406 481 1766 481 
L 2356 481 
L 2356 0 
L 1766 0 
Q 1100 0 847 248 
Q 594 497 594 1153 
L 594 3053 
L 172 3053 
L 172 3500 
L 594 3500 
L 594 4494 
L 1172 4494 
z
" transform="scale(0.015625)"/>
       <path id="DejaVuSans-65" d="M 3597 1894 
L 3597 1613 
L 953 1613 
Q 991 1019 1311 708 
Q 1631 397 2203 397 
Q 2534 397 2845 478 
Q 3156 559 3463 722 
L 3463 178 
Q 3153 47 2828 -22 
Q 2503 -91 2169 -91 
Q 1331 -91 842 396 
Q 353 884 353 1716 
Q 353 2575 817 3079 
Q 1281 3584 2069 3584 
Q 2775 3584 3186 3129 
Q 3597 2675 3597 1894 
z
M 3022 2063 
Q 3016 2534 2758 2815 
Q 2500 3097 2075 3097 
Q 1594 3097 1305 2825 
Q 1016 2553 972 2059 
L 3022 2063 
z
" transform="scale(0.015625)"/>
      </defs>
      <use xlink:href="#DejaVuSans-64"/>
      <use xlink:href="#DejaVuSans-61" x="63.476562"/>
      <use xlink:href="#DejaVuSans-74" x="124.755859"/>
      <use xlink:href="#DejaVuSans-65" x="163.964844"/>
     </g>
    </g>
   </g>
   <g id="matplotlib.axis_2">
    <g id="ytick_1">
     <g id="line2d_22">
      <defs>
       <path id="me6cc9dbfff" d="M 0 0 
L -3.5 0 
" style="stroke: #000000; stroke-width: 0.8"/>
      </defs>
      <g>
       <use xlink:href="#me6cc9dbfff" x="57.6" y="295.488" style="stroke: #000000; stroke-width: 0.8"/>
      </g>
     </g>
     <g id="text_7">
      <!-- 0 -->
      <g transform="translate(44.2375 299.287219)scale(0.1 -0.1)">
       <use xlink:href="#DejaVuSans-30"/>
      </g>
     </g>
    </g>
    <g id="ytick_2">
     <g id="line2d_23">
      <g>
       <use xlink:href="#me6cc9dbfff" x="57.6" y="246.615273" style="stroke: #000000; stroke-width: 0.8"/>
      </g>
     </g>
     <g id="text_8">
      <!-- 20 -->
      <g transform="translate(37.875 250.414491)scale(0.1 -0.1)">
       <use xlink:href="#DejaVuSans-32"/>
       <use xlink:href="#DejaVuSans-30" x="63.623047"/>
      </g>
     </g>
    </g>
    <g id="ytick_3">
     <g id="line2d_24">
      <g>
       <use xlink:href="#me6cc9dbfff" x="57.6" y="197.742545" style="stroke: #000000; stroke-width: 0.8"/>
      </g>
     </g>
     <g id="text_9">
      <!-- 40 -->
      <g transform="translate(37.875 201.541764)scale(0.1 -0.1)">
       <use xlink:href="#DejaVuSans-34"/>
       <use xlink:href="#DejaVuSans-30" x="63.623047"/>
      </g>
     </g>
    </g>
    <g id="ytick_4">
     <g id="line2d_25">
      <g>
       <use xlink:href="#me6cc9dbfff" x="57.6" y="148.869818" style="stroke: #000000; stroke-width: 0.8"/>
      </g>
     </g>
     <g id="text_10">
      <!-- 60 -->
      <g transform="translate(37.875 152.669037)scale(0.1 -0.1)">
       <defs>
        <path id="DejaVuSans-36" d="M 2113 2584 
Q 1688 2584 1439 2293 
Q 1191 2003 1191 1497 
Q 1191 994 1439 701 
Q 1688 409 2113 409 
Q 2538 409 2786 701 
Q 3034 994 3034 1497 
Q 3034 2003 2786 2293 
Q 2538 2584 2113 2584 
z
M 3366 4563 
L 3366 3988 
Q 3128 4100 2886 4159 
Q 2644 4219 2406 4219 
Q 1781 4219 1451 3797 
Q 1122 3375 1075 2522 
Q 1259 2794 1537 2939 
Q 1816 3084 2150 3084 
Q 2853 3084 3261 2657 
Q 3669 2231 3669 1497 
Q 3669 778 3244 343 
Q 2819 -91 2113 -91 
Q 1303 -91 875 529 
Q 447 1150 447 2328 
Q 447 3434 972 4092 
Q 1497 4750 2381 4750 
Q 2619 4750 2861 4703 
Q 3103 4656 3366 4563 
z
" transform="scale(0.015625)"/>
       </defs>
       <use xlink:href="#DejaVuSans-36"/>
       <use xlink:href="#DejaVuSans-30" x="63.623047"/>
      </g>
     </g>
    </g>
    <g id="ytick_5">
     <g id="line2d_26">
      <g>
       <use xlink:href="#me6cc9dbfff" x="57.6" y="99.997091" style="stroke: #000000; stroke-width: 0.8"/>
      </g>
     </g>
     <g id="text_11">
      <!-- 80 -->
      <g transform="translate(37.875 103.79631)scale(0.1 -0.1)">
       <defs>
        <path id="DejaVuSans-38" d="M 2034 2216 
Q 1584 2216 1326 1975 
Q 1069 1734 1069 1313 
Q 1069 891 1326 650 
Q 1584 409 2034 409 
Q 2484 409 2743 651 
Q 3003 894 3003 1313 
Q 3003 1734 2745 1975 
Q 2488 2216 2034 2216 
z
M 1403 2484 
Q 997 2584 770 2862 
Q 544 3141 544 3541 
Q 544 4100 942 4425 
Q 1341 4750 2034 4750 
Q 2731 4750 3128 4425 
Q 3525 4100 3525 3541 
Q 3525 3141 3298 2862 
Q 3072 2584 2669 2484 
Q 3125 2378 3379 2068 
Q 3634 1759 3634 1313 
Q 3634 634 3220 271 
Q 2806 -91 2034 -91 
Q 1263 -91 848 271 
Q 434 634 434 1313 
Q 434 1759 690 2068 
Q 947 2378 1403 2484 
z
M 1172 3481 
Q 1172 3119 1398 2916 
Q 1625 2713 2034 2713 
Q 2441 2713 2670 2916 
Q 2900 3119 2900 3481 
Q 2900 3844 2670 4047 
Q 2441 4250 2034 4250 
Q 1625 4250 1398 4047 
Q 1172 3844 1172 3481 
z
" transform="scale(0.015625)"/>
       </defs>
       <use xlink:href="#DejaVuSans-38"/>
       <use xlink:href="#DejaVuSans-30" x="63.623047"/>
      </g>
     </g>
    </g>
    <g id="ytick_6">
     <g id="line2d_27">
      <g>
       <use xlink:href="#me6cc9dbfff" x="57.6" y="51.124364" style="stroke: #000000; stroke-width: 0.8"/>
      </g>
     </g>
     <g id="text_12">
      <!-- 100 -->
      <g transform="translate(31.5125 54.923582)scale(0.1 -0.1)">
       <use xlink:href="#DejaVuSans-31"/>
       <use xlink:href="#DejaVuSans-30" x="63.623047"/>
       <use xlink:href="#DejaVuSans-30" x="127.246094"/>
      </g>
     </g>
    </g>
   </g>
   <g id="line2d_28">
    <path d="M 57.6 53.568 
L 58.383158 55.152884 
L 59.166316 57.21721 
L 59.949474 59.889216 
L 60.732632 63.313406 
L 61.515789 67.658343 
L 62.298947 73.100071 
L 63.277895 81.646769 
L 64.256842 92.293039 
L 65.431579 107.716358 
L 67.193684 134.508991 
L 69.543158 170.213377 
L 70.913684 187.394628 
L 72.088421 199.123312 
L 73.067368 206.764698 
L 74.046316 212.72113 
L 75.025263 217.373228 
L 76.004211 220.849631 
L 76.787368 222.929609 
L 77.570526 224.494411 
L 78.353684 225.621288 
L 79.136842 226.36631 
L 79.92 226.764687 
L 80.703158 226.872489 
L 81.486316 226.742883 
L 82.269474 226.406353 
L 83.248421 225.738258 
L 84.423158 224.641892 
L 85.989474 222.812086 
L 87.751579 220.394692 
L 89.905263 217.045033 
L 93.037895 211.706262 
L 99.694737 199.851127 
L 105.96 188.888591 
L 110.854737 180.760862 
L 115.357895 173.718628 
L 119.469474 167.700114 
L 123.189474 162.630249 
L 126.713684 158.194243 
L 129.846316 154.590069 
L 132.783158 151.544181 
L 135.328421 149.213328 
L 137.677895 147.365305 
L 139.635789 146.086605 
L 141.397895 145.169995 
L 143.16 144.505348 
L 144.726316 144.14756 
L 146.096842 144.034096 
L 147.467368 144.137072 
L 148.837895 144.480371 
L 150.208421 145.08248 
L 151.578947 145.956488 
L 152.949474 147.110086 
L 154.32 148.545566 
L 155.886316 150.527045 
L 157.452632 152.859191 
L 159.214737 155.871902 
L 161.564211 160.372333 
L 170.178947 177.442437 
L 172.136842 180.572634 
L 173.898947 182.999445 
L 175.465263 184.815881 
L 176.835789 186.112534 
L 178.206316 187.123183 
L 179.576842 187.846862 
L 180.947368 188.293457 
L 182.317895 188.48371 
L 183.688421 188.449218 
L 185.254737 188.189554 
L 187.408421 187.589939 
L 189.562105 186.753504 
L 191.911579 185.594763 
L 194.848421 183.881813 
L 198.764211 181.307822 
L 206.4 175.936264 
L 211.294737 172.650259 
L 215.014737 170.412892 
L 218.343158 168.672678 
L 221.28 167.376041 
L 224.021053 166.392243 
L 226.566316 165.708315 
L 228.915789 165.29353 
L 231.265263 165.097161 
L 233.614737 165.122044 
L 235.964211 165.363744 
L 238.509474 165.856508 
L 241.250526 166.62791 
L 244.187368 167.686941 
L 247.711579 169.197621 
L 253.585263 172.002918 
L 259.067368 174.53203 
L 262.395789 175.827285 
L 265.332632 176.736136 
L 268.269474 177.428032 
L 271.010526 177.846041 
L 273.751579 178.027683 
L 276.492632 177.975203 
L 279.429474 177.682532 
L 282.757895 177.115714 
L 288.044211 175.949398 
L 304.490526 172.125567 
L 309.189474 171.385861 
L 313.496842 170.933983 
L 317.412632 170.740448 
L 321.524211 170.76398 
L 325.831579 171.013045 
L 331.313684 171.571641 
L 338.949474 172.602429 
L 349.130526 173.94969 
L 354.612632 174.445642 
L 360.094737 174.714237 
L 365.185263 174.744438 
L 370.667368 174.551422 
L 378.303158 174.030008 
L 396.511579 172.770679 
L 403.755789 172.562181 
L 411.195789 172.570509 
L 414.72 172.642498 
L 414.72 172.642498 
" clip-path="url(#p9e1b1b95ed)" style="fill: none; stroke: #1f77b4; stroke-width: 1.5; stroke-linecap: square"/>
   </g>
   <g id="line2d_29">
    <path d="M 57.6 293.044364 
L 58.578947 292.030209 
L 59.557895 290.629476 
L 60.536842 288.72965 
L 61.515789 286.213025 
L 62.494737 282.970772 
L 63.669474 278.113109 
L 65.235789 270.367966 
L 66.997895 261.942961 
L 67.976842 258.399388 
L 68.564211 256.916044 
L 69.151579 256.024071 
L 69.543158 255.75461 
L 69.934737 255.730167 
L 70.326316 255.938285 
L 70.717895 256.364466 
L 71.305263 257.375876 
L 72.088421 259.316208 
L 73.067368 262.432132 
L 76.787368 275.080017 
L 78.157895 278.905367 
L 79.528421 282.092598 
L 80.898947 284.721619 
L 82.269474 286.83411 
L 83.64 288.518888 
L 85.010526 289.850908 
L 86.381053 290.891996 
L 87.947368 291.813222 
L 89.709474 292.59937 
L 91.863158 293.302614 
L 94.212632 293.823099 
L 97.345263 294.271532 
L 101.456842 294.617248 
L 107.134737 294.850917 
L 115.357895 294.952437 
L 124.755789 294.848263 
L 132 294.56416 
L 137.286316 294.150462 
L 141.593684 293.593335 
L 145.313684 292.882573 
L 148.446316 292.071256 
L 151.578947 291.024293 
L 155.494737 289.449449 
L 160.976842 287.243646 
L 163.522105 286.486326 
L 165.675789 286.073708 
L 167.633684 285.907517 
L 169.591579 285.949563 
L 171.745263 286.230999 
L 174.877895 286.926884 
L 178.206316 287.915668 
L 186.821053 290.664193 
L 190.932632 291.412861 
L 195.24 291.976847 
L 200.134737 292.387759 
L 205.812632 292.641653 
L 211.882105 292.690974 
L 218.538947 292.520902 
L 225.391579 292.124818 
L 233.223158 291.439513 
L 248.103158 290.071829 
L 253.976842 289.808638 
L 259.458947 289.779745 
L 264.941053 289.980137 
L 274.143158 290.572838 
L 286.086316 291.348495 
L 294.701053 291.566106 
L 303.315789 291.553648 
L 314.671579 291.297956 
L 339.732632 290.642611 
L 350.501053 290.653387 
L 366.555789 290.93658 
L 383.393684 291.157881 
L 398.273684 291.116848 
L 414.72 290.955379 
L 414.72 290.955379 
" clip-path="url(#p9e1b1b95ed)" style="fill: none; stroke: #ff7f0e; stroke-width: 1.5; stroke-linecap: square"/>
   </g>
   <g id="line2d_30">
    <path d="M 57.6 295.488 
L 58.578947 294.450789 
L 59.362105 293.331723 
L 60.145263 291.874723 
L 60.928421 289.989767 
L 61.711579 287.565852 
L 62.494737 284.480919 
L 63.277895 280.610752 
L 64.256842 274.484643 
L 65.235789 266.760763 
L 66.410526 255.305698 
L 67.781053 239.270634 
L 70.326316 205.693686 
L 72.284211 181.410368 
L 73.654737 167.0766 
L 74.829474 156.897057 
L 76.004211 148.629659 
L 77.178947 142.090793 
L 78.157895 137.817801 
L 79.136842 134.491447 
L 80.115789 131.997084 
L 80.898947 130.517621 
L 81.682105 129.437252 
L 82.465263 128.708029 
L 83.248421 128.285634 
L 84.031579 128.129377 
L 84.814737 128.202199 
L 85.793684 128.564567 
L 86.772632 129.174878 
L 87.947368 130.180873 
L 89.317895 131.662988 
L 91.08 133.939362 
L 93.429474 137.4067 
L 96.562105 142.463168 
L 103.218947 153.766164 
L 109.484211 164.208785 
L 114.378947 171.938606 
L 118.686316 178.344772 
L 122.797895 184.064766 
L 126.517895 188.869811 
L 130.042105 193.058167 
L 133.174737 196.443166 
L 135.915789 199.097043 
L 138.461053 201.255033 
L 140.614737 202.810046 
L 142.572632 203.97416 
L 144.334737 204.792036 
L 146.096842 205.365453 
L 147.663158 205.633605 
L 149.033684 205.657303 
L 150.404211 205.465995 
L 151.774737 205.04485 
L 153.145263 204.381432 
L 154.515789 203.465698 
L 155.886316 202.289998 
L 157.452632 200.621386 
L 159.018947 198.604678 
L 160.781053 195.962985 
L 162.934737 192.309411 
L 165.871579 186.841943 
L 171.353684 176.558268 
L 173.703158 172.714045 
L 175.661053 169.943795 
L 177.423158 167.856057 
L 178.989474 166.351614 
L 180.36 165.314743 
L 181.730526 164.536852 
L 183.101053 164.008104 
L 184.471579 163.710922 
L 186.037895 163.621997 
L 187.8 163.781704 
L 189.562105 164.159745 
L 191.52 164.794902 
L 193.869474 165.80083 
L 196.610526 167.232235 
L 199.938947 169.228838 
L 204.833684 172.449696 
L 212.861053 177.745665 
L 216.776842 180.055499 
L 220.301053 181.878339 
L 223.433684 183.257993 
L 226.174737 184.236074 
L 228.72 184.921698 
L 231.265263 185.374504 
L 233.614737 185.577626 
L 235.964211 185.573439 
L 238.509474 185.341242 
L 241.054737 184.886968 
L 243.795789 184.171742 
L 246.928421 183.105864 
L 250.648421 181.589955 
L 257.501053 178.49052 
L 262.2 176.489536 
L 265.724211 175.236712 
L 268.856842 174.356564 
L 271.597895 173.805535 
L 274.338947 173.477361 
L 277.08 173.374021 
L 280.016842 173.497686 
L 283.149474 173.857382 
L 287.261053 174.57466 
L 292.743158 175.77744 
L 304.882105 178.513989 
L 309.972632 179.385313 
L 314.28 179.912306 
L 318.391579 180.194995 
L 322.503158 180.253352 
L 327.006316 180.082618 
L 332.292632 179.645566 
L 338.949474 178.847499 
L 353.242105 177.06808 
L 359.115789 176.627138 
L 364.402105 176.452814 
L 369.688421 176.503318 
L 375.953684 176.799312 
L 387.701053 177.631404 
L 397.882105 178.265861 
L 405.322105 178.506136 
L 412.957895 178.526917 
L 414.72 178.502487 
L 414.72 178.502487 
" clip-path="url(#p9e1b1b95ed)" style="fill: none; stroke: #2ca02c; stroke-width: 1.5; stroke-linecap: square"/>
   </g>
   <g id="patch_3">
    <path d="M 57.6 307.584 
L 57.6 41.472 
" style="fill: none; stroke: #000000; stroke-width: 0.8; stroke-linejoin: miter; stroke-linecap: square"/>
   </g>
   <g id="patch_4">
    <path d="M 414.72 307.584 
L 414.72 41.472 
" style="fill: none; stroke: #000000; stroke-width: 0.8; stroke-linejoin: miter; stroke-linecap: square"/>
   </g>
   <g id="patch_5">
    <path d="M 57.6 307.584 
L 414.72 307.584 
" style="fill: none; stroke: #000000; stroke-width: 0.8; stroke-linejoin: miter; stroke-linecap: square"/>
   </g>
   <g id="patch_6">
    <path d="M 57.6 41.472 
L 414.72 41.472 
" style="fill: none; stroke: #000000; stroke-width: 0.8; stroke-linejoin: miter; stroke-linecap: square"/>
   </g>
   <g id="legend_1">
    <g id="patch_7">
     <path d="M 368.771563 93.506375 
L 407.72 93.506375 
Q 409.72 93.506375 409.72 91.506375 
L 409.72 48.472 
Q 409.72 46.472 407.72 46.472 
L 368.771563 46.472 
Q 366.771563 46.472 366.771563 48.472 
L 366.771563 91.506375 
Q 366.771563 93.506375 368.771563 93.506375 
z
" style="fill: #ffffff; opacity: 0.8; stroke: #cccccc; stroke-linejoin: miter"/>
    </g>
    <g id="line2d_31">
     <path d="M 370.771563 54.570438 
L 380.771563 54.570438 
L 390.771563 54.570438 
" style="fill: none; stroke: #1f77b4; stroke-width: 1.5; stroke-linecap: square"/>
    </g>
    <g id="text_13">
     <!-- S -->
     <g transform="translate(398.771563 58.070438)scale(0.1 -0.1)">
      <defs>
       <path id="DejaVuSans-53" d="M 3425 4513 
L 3425 3897 
Q 3066 4069 2747 4153 
Q 2428 4238 2131 4238 
Q 1616 4238 1336 4038 
Q 1056 3838 1056 3469 
Q 1056 3159 1242 3001 
Q 1428 2844 1947 2747 
L 2328 2669 
Q 3034 2534 3370 2195 
Q 3706 1856 3706 1288 
Q 3706 609 3251 259 
Q 2797 -91 1919 -91 
Q 1588 -91 1214 -16 
Q 841 59 441 206 
L 441 856 
Q 825 641 1194 531 
Q 1563 422 1919 422 
Q 2459 422 2753 634 
Q 3047 847 3047 1241 
Q 3047 1584 2836 1778 
Q 2625 1972 2144 2069 
L 1759 2144 
Q 1053 2284 737 2584 
Q 422 2884 422 3419 
Q 422 4038 858 4394 
Q 1294 4750 2059 4750 
Q 2388 4750 2728 4690 
Q 3069 4631 3425 4513 
z
" transform="scale(0.015625)"/>
      </defs>
      <use xlink:href="#DejaVuSans-53"/>
     </g>
    </g>
    <g id="line2d_32">
     <path d="M 370.771563 69.248563 
L 380.771563 69.248563 
L 390.771563 69.248563 
" style="fill: none; stroke: #ff7f0e; stroke-width: 1.5; stroke-linecap: square"/>
    </g>
    <g id="text_14">
     <!-- I -->
     <g transform="translate(398.771563 72.748563)scale(0.1 -0.1)">
      <defs>
       <path id="DejaVuSans-49" d="M 628 4666 
L 1259 4666 
L 1259 0 
L 628 0 
L 628 4666 
z
" transform="scale(0.015625)"/>
      </defs>
      <use xlink:href="#DejaVuSans-49"/>
     </g>
    </g>
    <g id="line2d_33">
     <path d="M 370.771563 83.926688 
L 380.771563 83.926688 
L 390.771563 83.926688 
" style="fill: none; stroke: #2ca02c; stroke-width: 1.5; stroke-linecap: square"/>
    </g>
    <g id="text_15">
     <!-- R -->
     <g transform="translate(398.771563 87.426688)scale(0.1 -0.1)">
      <defs>
       <path id="DejaVuSans-52" d="M 2841 2188 
Q 3044 2119 3236 1894 
Q 3428 1669 3622 1275 
L 4263 0 
L 3584 0 
L 2988 1197 
Q 2756 1666 2539 1819 
Q 2322 1972 1947 1972 
L 1259 1972 
L 1259 0 
L 628 0 
L 628 4666 
L 2053 4666 
Q 2853 4666 3247 4331 
Q 3641 3997 3641 3322 
Q 3641 2881 3436 2590 
Q 3231 2300 2841 2188 
z
M 1259 4147 
L 1259 2491 
L 2053 2491 
Q 2509 2491 2742 2702 
Q 2975 2913 2975 3322 
Q 2975 3731 2742 3939 
Q 2509 4147 2053 4147 
L 1259 4147 
z
" transform="scale(0.015625)"/>
      </defs>
      <use xlink:href="#DejaVuSans-52"/>
     </g>
    </g>
   </g>
  </g>
 </g>
 <defs>
  <clipPath id="p9e1b1b95ed">
   <rect x="57.6" y="41.472" width="357.12" height="266.112"/>
  </clipPath>
 </defs>
</svg>
